<?xml version="1.0" encoding="UTF-8" standalone="no"?>
<svg
   viewBox="0 0 682 232"
   version="1.1"
   id="svg77"
   sodipodi:docname="logo_4linux.svg"
   width="682"
   height="232"
   inkscape:version="1.1 (ce6663b3b7, 2021-05-25)"
   xmlns:inkscape="http://www.inkscape.org/namespaces/inkscape"
   xmlns:sodipodi="http://sodipodi.sourceforge.net/DTD/sodipodi-0.dtd"
   xmlns="http://www.w3.org/2000/svg"
   xmlns:svg="http://www.w3.org/2000/svg">
  <sodipodi:namedview
     id="namedview79"
     pagecolor="#ffffff"
     bordercolor="#666666"
     borderopacity="1.0"
     inkscape:pageshadow="2"
     inkscape:pageopacity="0.0"
     inkscape:pagecheckerboard="0"
     showgrid="false"
     showguides="false"
     width="682px"
     inkscape:zoom="0.84537477"
     inkscape:cx="655.92211"
     inkscape:cy="-110.60183"
     inkscape:window-width="1864"
     inkscape:window-height="1016"
     inkscape:window-x="56"
     inkscape:window-y="27"
     inkscape:window-maximized="1"
     inkscape:current-layer="svg77" />
  <defs
     id="defs7">
    <style
       id="style2">.cls-1{fill:#12d7d3;}.cls-2{fill:#fff;}.cls-3{clip-path:url(#clip-path);}</style>
    <clipPath
       id="clip-path">
      <rect
         class="cls-1"
         x="142.63"
         y="118.13"
         width="25.940001"
         height="25.940001"
         id="rect4" />
    </clipPath>
  </defs>
  <rect
     style="fill:#000000;fill-rule:evenodd;stroke-width:0.818999"
     id="rect103"
     width="682"
     height="232"
     x="0"
     y="0"
     inkscape:export-filename="/home/bruno/Downloads/rect103.png"
     inkscape:export-xdpi="96"
     inkscape:export-ydpi="96" />
  <g
     id="g13447"
     transform="translate(3.383883,7.8066943)">
    <polygon
       class="cls-1"
       points="0,118.39 0,138.94 0,143.82 77.52,143.82 77.52,187.38 102.95,187.38 102.95,143.82 102.95,118.39 102.95,84.43 77.52,84.43 77.52,118.39 20.54,118.39 102.19,36.74 102.19,0 0,102.19 "
       id="polygon67"
       inkscape:export-filename="/home/bruno/Downloads/rect103.png"
       inkscape:export-xdpi="96"
       inkscape:export-ydpi="96"
       transform="matrix(0.99895758,0,0,0.99895758,30.694204,14.60097)" />
    <rect
       class="cls-1"
       x="173.17552"
       y="132.60783"
       width="25.91296"
       height="25.91296"
       id="rect69"
       inkscape:export-filename="/home/bruno/Downloads/rect103.png"
       inkscape:export-xdpi="96"
       inkscape:export-ydpi="96"
       style="stroke-width:0.998958" />
    <g
       class="cls-3"
       clip-path="url(#clip-path)"
       id="g73"
       inkscape:export-filename="/home/bruno/Downloads/rect103.png"
       inkscape:export-xdpi="96"
       inkscape:export-ydpi="96"
       transform="matrix(0.99895758,0,0,0.99895758,30.694204,14.60097)">
      <rect
         class="cls-1"
         x="137.32001"
         y="112.82"
         width="36.57"
         height="36.57"
         transform="rotate(-40.41,155.61683,131.11591)"
         id="rect71" />
    </g>
    <path
       style="font-weight:bold;font-size:192.016px;line-height:1.25;font-family:'Droid Sans Fallback';-inkscape-font-specification:'Droid Sans Fallback Bold';fill:#ffffff;stroke-width:4.79541"
       d="m 610.91491,93.491304 -25.56707,71.177676 v 33.72067 h 17.88563 L 644.53803,93.491304 Z"
       id="path13092"
       inkscape:export-filename="/home/bruno/Downloads/rect103.png"
       inkscape:export-xdpi="96"
       inkscape:export-ydpi="96" />
    <path
       style="font-weight:bold;font-size:192.016px;line-height:1.25;font-family:'Droid Sans Fallback';-inkscape-font-specification:'Droid Sans Fallback Bold';fill:#ffffff;stroke-width:4.79541"
       d="m 513.22779,93.491304 41.2109,104.898346 h 18.4495 V 165.98402 L 546.75725,93.491304 Z"
       id="path13090"
       inkscape:export-filename="/home/bruno/Downloads/rect103.png"
       inkscape:export-xdpi="96"
       inkscape:export-ydpi="96" />
    <path
       id="path13088"
       style="font-weight:bold;font-size:192.016px;line-height:1.25;font-family:'Droid Sans Fallback';-inkscape-font-specification:'Droid Sans Fallback Bold';fill:#ffffff;stroke-width:4.79541"
       d="m 446.63517,90.962692 c -18.10762,0 -32.34429,4.900319 -42.70935,14.703408 -10.30261,9.80308 -15.45262,23.25945 -15.45262,40.36803 0,17.42078 5.24366,30.97078 15.73358,40.64899 10.55238,9.61577 25.31966,14.42245 44.30143,14.42245 7.92989,0 15.85974,-0.78031 23.78963,-2.34131 7.92988,-1.49856 15.85975,-3.74584 23.78963,-6.74296 v -25.84998 c -7.80501,4.24592 -15.42274,7.42957 -22.85311,9.55254 -7.36792,2.06052 -14.5799,3.09052 -21.63562,3.09052 -8.74161,0 -15.54783,-1.96638 -20.41815,-5.90009 -4.87032,-3.93373 -7.71063,-9.83479 -8.52235,-17.70224 h 78.3928 v -9.55253 c 0,-16.60905 -4.96274,-29.87814 -14.89071,-39.80612 -9.86552,-9.927964 -23.04099,-14.890708 -39.52516,-14.890708 z m -0.18731,22.291188 c 5.99425,0 10.8341,1.96637 14.51805,5.9001 3.74641,3.87129 5.61914,8.99205 5.61914,15.36092 h -43.5522 c 0.99903,-6.8684 3.52722,-12.11401 7.58583,-15.73553 4.0586,-3.68397 9.33542,-5.52549 15.82918,-5.52549 z"
       inkscape:export-filename="/home/bruno/Downloads/rect103.png"
       inkscape:export-xdpi="96"
       inkscape:export-ydpi="96" />
    <path
       id="path12645"
       style="font-weight:bold;font-size:192.016px;line-height:1.25;font-family:'Droid Sans Fallback';-inkscape-font-specification:'Droid Sans Fallback Bold';fill:#ffffff;stroke-width:4.79541"
       d="M 238.61591,58.555104 V 198.38965 h 38.02672 c 20.97985,0 36.71472,-1.49818 47.20465,-4.49531 10.48993,-3.05955 19.481,-8.21153 26.97381,-15.45457 6.5562,-6.30645 11.42726,-13.5789 14.6117,-21.82098 3.18445,-8.30453 4.77627,-17.73452 4.77627,-28.28689 0,-10.42749 -1.59182,-19.76189 -4.77627,-28.00398 -3.18444,-8.242088 -8.0555,-15.516486 -14.6117,-21.822931 -7.43037,-7.243047 -16.35901,-12.36185 -26.78651,-15.358973 -10.36504,-3.059562 -26.16234,-4.590912 -47.39195,-4.590912 z m 36.06003,27.256713 h 12.92401 c 14.79829,0 26.06981,3.620618 33.81237,10.863664 7.74257,7.243049 11.61288,17.794729 11.61288,31.656419 0,13.92413 -3.90152,24.54018 -11.70654,31.84568 -7.74256,7.30547 -18.98287,10.95731 -33.71871,10.95731 h -12.92401 z"
       inkscape:export-filename="/home/bruno/Downloads/rect103.png"
       inkscape:export-xdpi="96"
       inkscape:export-ydpi="96" />
    <ellipse
       style="fill:#ffffff;stroke-width:0.998958"
       id="path13334"
       cx="578.98425"
       cy="123.83404"
       rx="15.930964"
       ry="15.361891" />
  </g>
</svg>
